<svg xmlns="http://www.w3.org/2000/svg" viewBox="0 0 200 150" width="100%" height="100%">
  <defs>
    <filter id="shadow-top" x="-20%" y="-20%" width="140%" height="140%">
      <feDropShadow dx="0" dy="6" stdDeviation="6" flood-color="#001a40" flood-opacity="0.35"/>
    </filter>
    <linearGradient id="topFace-top" x1="0%" y1="0%" x2="0%" y2="100%">
      <stop offset="0%" stop-color="#ffffff" stop-opacity="0.95"/>
      <stop offset="100%" stop-color="#d0e8ff" stop-opacity="0.75"/>
    </linearGradient>
    <linearGradient id="outerBody-top" x1="0%" y1="0%" x2="100%" y2="0%">
      <stop offset="0%" stop-color="#ffffff" stop-opacity="0.9"/>
      <stop offset="20%" stop-color="#88bfff" stop-opacity="0.4"/>
      <stop offset="50%" stop-color="#ffffff" stop-opacity="0.1"/>
      <stop offset="80%" stop-color="#88bfff" stop-opacity="0.4"/>
      <stop offset="100%" stop-color="#ffffff" stop-opacity="0.9"/>
    </linearGradient>
    <linearGradient id="innerHole-top" x1="0%" y1="0%" x2="100%" y2="0%">
      <stop offset="0%" stop-color="#002266" stop-opacity="0.6"/>
      <stop offset="50%" stop-color="#002266" stop-opacity="0.15"/>
      <stop offset="100%" stop-color="#002266" stop-opacity="0.6"/>
    </linearGradient>
  </defs>
  <g filter="url(#shadow-top)">
    <path fill-rule="evenodd" d="M 140,91 A 40,20 0 1,1 60,91 A 40,20 0 1,1 140,91 Z M 116,91 A 16,8 0 1,1 84,91 A 16,8 0 1,1 116,91 Z" fill="#88bfff" fill-opacity="0.35"/>
    <path d="M 60,75 A 40,20 0 0,0 140,75 L 140,91 A 40,20 0 0,1 60,91 Z" fill="url(#outerBody-top)"/>
    <path d="M 60,91 A 40,20 0 0,0 140,91" fill="none" stroke="#ffffff" stroke-width="1.5" stroke-opacity="0.8"/>
    <path d="M 84,75 A 16,8 0 0,1 116,75 L 116,91 A 16,8 0 0,0 84,91 Z" fill="url(#innerHole-top)"/>
    <path fill-rule="evenodd" d="M 140,75 A 40,20 0 1,1 60,75 A 40,20 0 1,1 140,75 Z M 116,75 A 16,8 0 1,1 84,75 A 16,8 0 1,1 116,75 Z" fill="url(#topFace-top)" stroke="#ffffff" stroke-width="2" stroke-opacity="0.95"/>
    <ellipse cx="100" cy="75" rx="36" ry="18" fill="none" stroke="#ffffff" stroke-width="1.5" stroke-opacity="0.7"/>
  </g>
</svg>
